0
SECTION
2
HEADER
9
$INSUNITS
70
4
9
$ACADVER
1
AC1014
9
$HANDSEED
5
FFFF
0
ENDSEC
0
SECTION
2
TABLES
0
TABLE
2
VPORT
5
8
100
AcDbSymbolTable
0
ENDTAB
0
TABLE
2
LTYPE
5
5
100
AcDbSymbolTable
0
LTYPE
5
14
100
AcDbSymbolTableRecord
100
AcDbLinetypeTableRecord
2
BYBLOCK
70
0
0
LTYPE
5
15
100
AcDbSymbolTableRecord
100
AcDbLinetypeTableRecord
2
BYLAYER
70
0
0
ENDTAB
0
TABLE
2
LAYER
5
2
100
AcDbSymbolTable
70
2
0
LAYER
5
50
100
AcDbSymbolTableRecord
100
AcDbLayerTableRecord
2
0
70
0
6
CONTINUOUS
0
ENDTAB
0
TABLE
2
STYLE
5
3
100
AcDbSymbolTable
70
1
0
STYLE
5
11
100
AcDbSymbolTableRecord
100
AcDbTextStyleTableRecord
2
STANDARD
70
0
0
ENDTAB
0
TABLE
2
VIEW
5
6
100
AcDbSymbolTable
70
0
0
ENDTAB
0
TABLE
2
UCS
5
7
100
AcDbSymbolTable
70
0
0
ENDTAB
0
TABLE
2
APPID
5
9
100
AcDbSymbolTable
70
2
0
APPID
5
12
100
AcDbSymbolTableRecord
100
AcDbRegAppTableRecord
2
ACAD
70
0
0
ENDTAB
0
TABLE
2
DIMSTYLE
5
A
100
AcDbSymbolTable
70
1
0
ENDTAB
0
TABLE
2
BLOCK_RECORD
5
1
100
AcDbSymbolTable
70
1
0
BLOCK_RECORD
5
1F
100
AcDbSymbolTableRecord
100
AcDbBlockTableRecord
2
*MODEL_SPACE
0
BLOCK_RECORD
5
1B
100
AcDbSymbolTableRecord
100
AcDbBlockTableRecord
2
*PAPER_SPACE
0
ENDTAB
0
ENDSEC
0
SECTION
2
BLOCKS
0
BLOCK
5
20
100
AcDbEntity
100
AcDbBlockBegin
2
*MODEL_SPACE
0
ENDBLK
5
21
100
AcDbEntity
100
AcDbBlockEnd
0
BLOCK
5
1C
100
AcDbEntity
100
AcDbBlockBegin
2
*PAPER_SPACE
0
ENDBLK
5
1D
100
AcDbEntity
100
AcDbBlockEnd
0
ENDSEC
0
SECTION
2
ENTITIES
0
CIRCLE
5
100
100
AcDbEntity
8
0
100
AcDbCircle
10
-18.364695647264057
20
-31.57220200314655
30
0
40
3.0000000000000004
0
CIRCLE
5
101
100
AcDbEntity
8
0
100
AcDbCircle
10
36.524676811770874
20
-0.11819196172687452
30
0
40
2.9999999999999982
0
CIRCLE
5
102
100
AcDbEntity
8
0
100
AcDbCircle
10
-18.159981164506839
20
31.69039396487344
30
0
40
3.0000000000000004
0
CIRCLE
5
103
100
AcDbEntity
8
0
100
AcDbCircle
10
-273.53771130731388
20
158.47791899295072
30
0
40
1.0000000000000142
0
CIRCLE
5
104
100
AcDbEntity
8
0
100
AcDbCircle
10
274.01475944044455
20
157.65164738871243
30
0
40
1.0000000000000142
0
CIRCLE
5
105
100
AcDbEntity
8
0
100
AcDbCircle
10
-0.47704813313087513
20
-316.1295663816631
30
0
40
0.99999999999999978
0
LWPOLYLINE
5
106
100
AcDbEntity
8
0
100
AcDbPolyline
90
6
70
1
43
0.0
10
-159.65382954836261
20
-90.671455599295001
10
-36.060312555178307
20
-304.74170651761835
42
-0.17698760959000309
10
35.434890515535962
20
-305.82496926645013
10
159.65382954836264
20
-90.671455599295001
10
55.632597484024011
20
-30.614769265512432
42
-0.59111442250977375
10
-55.632597484023982
20
-30.614769265512471
0
LWPOLYLINE
5
107
100
AcDbEntity
8
0
100
AcDbPolyline
90
6
70
1
43
0.0
10
-27.859995913504783
20
183.5999999999998
10
-245.8839031592903
20
183.60000000000045
42
-0.17698760959000309
10
-282.56963775410901
20
122.22496926645057
10
-180.79588135230964
20
-54.052347698605558
10
-61.784894338041482
20
14.65867769060532
42
-0.22457874878685036
10
-27.859995913504779
20
57.061989342288939
0
LWPOLYLINE
5
108
100
AcDbEntity
8
0
100
AcDbPolyline
90
6
70
1
43
0.0
10
180.79588135230964
20
-54.052347698605558
10
281.94421571446838
20
121.14170651761799
42
-0.17698760959000309
10
247.13474723857288
20
183.5999999999996
10
23.74446511420345
20
183.5999999999998
10
23.744465114203457
20
58.893551229658208
42
-0.24328862181605887
10
61.784894338041468
20
14.658677690605302
0
LWPOLYLINE
5
109
100
AcDbEntity
8
0
100
AcDbPolyline
90
6
70
1
43
0.0
10
57.326330172535862
20
-357.90788352969867
42
-1.9748711653016124
10
-57.326330172536082
20
-357.90788352969906
10
-338.8785916951125
20
129.75493841332346
42
-2.0341659505680081
10
-284.8839927513979
20
228.59999999999999
10
284.88399275139778
20
228.59999999999962
42
-2.0341659505680094
10
338.87859169511279
20
129.75493841332343
0
ENDSEC
0
SECTION
2
OBJECTS
0
DICTIONARY
5
C
100
AcDbDictionary
3
ACAD_GROUP
350
D
3
ACAD_MLINESTYLE
350
17
0
DICTIONARY
5
D
100
AcDbDictionary
0
DICTIONARY
5
1A
330
C
100
AcDbDictionary
0
DICTIONARY
5
17
100
AcDbDictionary
0
ENDSEC
0
EOF
